<?xml version="1.0" encoding="UTF-8" standalone="no"?>
<!-- Created with Inkscape (http://www.inkscape.org/) -->

<svg
   xmlns:dc="http://purl.org/dc/elements/1.1/"
   xmlns:cc="http://creativecommons.org/ns#"
   xmlns:rdf="http://www.w3.org/1999/02/22-rdf-syntax-ns#"
   xmlns:svg="http://www.w3.org/2000/svg"
   xmlns="http://www.w3.org/2000/svg"
   xmlns:sodipodi="http://sodipodi.sourceforge.net/DTD/sodipodi-0.dtd"
   xmlns:inkscape="http://www.inkscape.org/namespaces/inkscape"
   width="66.145836mm"
   height="66.145836mm"
   viewBox="0 0 234.37501 234.37501"
   id="svg2"
   version="1.1"
   inkscape:version="0.92.3 (2405546, 2018-03-11)"
   sodipodi:docname="morph-logo.svg">
  <defs
     id="defs4" />
  <sodipodi:namedview
     id="base"
     pagecolor="#ffffff"
     bordercolor="#666666"
     borderopacity="1.0"
     inkscape:pageopacity="0.0"
     inkscape:pageshadow="2"
     inkscape:zoom="0.74297138"
     inkscape:cx="-63.339732"
     inkscape:cy="136.53337"
     inkscape:document-units="px"
     inkscape:current-layer="layer1"
     showgrid="false"
     inkscape:window-width="1920"
     inkscape:window-height="1017"
     inkscape:window-x="0"
     inkscape:window-y="30"
     inkscape:window-maximized="1"
     fit-margin-top="0"
     fit-margin-left="0"
     fit-margin-right="0"
     fit-margin-bottom="0" />
  <metadata
     id="metadata7">
    <rdf:RDF>
      <cc:Work
         rdf:about="">
        <dc:format>image/svg+xml</dc:format>
        <dc:type
           rdf:resource="http://purl.org/dc/dcmitype/StillImage" />
        <dc:title></dc:title>
      </cc:Work>
    </rdf:RDF>
  </metadata>
  <g
     inkscape:label="Layer 1"
     inkscape:groupmode="layer"
     id="layer1"
     transform="translate(-244.0472,-419.80614)">
    <g
       id="g3657"
       transform="matrix(0.91552735,0,0,0.91552735,4398.8708,-2164.0749)"
       inkscape:export-xdpi="96"
       inkscape:export-ydpi="96">
      <rect
         y="2822.2871"
         x="-4538.1753"
         height="256"
         width="256"
         id="rect3346"
         style="fill:none;fill-opacity:1" />
      <g
         style="fill:#015656;fill-opacity:1"
         id="g4"
         transform="matrix(3.2226222,0,0,3.3496909,-4571.3749,2782.9128)">
        <path
           style="fill:#015656;fill-opacity:1"
           id="path6"
           d="M 69.9,48.6 C 73.8,54.2 72.4,62 66.7,65.9 61,69.8 53.3,68.5 49.4,62.8 45.5,57.2 46.9,49.5 52.6,45.5 58.3,41.6 66,42.9 69.9,48.6 Z"
           inkscape:connector-curvature="0" />
        <path
           style="fill:#015656;fill-opacity:1"
           id="path8"
           d="m 45.3,51.4 c -2.1,7.5 1.5,14.6 8,17.8 -2,4.5 -8.5,8.3 -15.2,5.9 -6.4,-2.3 -9.7,-9.3 -7.4,-15.8 2.3,-6.4 9.4,-9.4 14.6,-7.9 z"
           inkscape:connector-curvature="0" />
        <path
           style="fill:#015656;fill-opacity:1"
           id="path10"
           d="m 32.9,52.1 c -3.2,-3.2 -4.5,-7 -3.6,-11.5 1.1,-5.9 6.5,-10.2 12.5,-10.1 6,0.1 11,4.5 12,10.3 0.1,0.8 0,1.2 -0.8,1.6 -2.6,1.3 -4.7,3.2 -6.1,5.7 -0.4,0.7 -0.7,0.9 -1.5,0.7 -4.3,-0.8 -8.3,0.1 -11.8,2.8 -0.3,0.2 -0.5,0.3 -0.7,0.5 z"
           inkscape:connector-curvature="0" />
        <path
           style="fill:#015656;fill-opacity:1"
           id="path12"
           d="M 67.6,43.1 C 64,41 60.3,40.4 56.3,41.3 55.7,36.9 53.6,33.4 50,30.8 c 2.7,-3.1 8.7,-4.7 13.7,-1.5 4.6,2.8 6.3,8.9 3.9,13.8 z"
           inkscape:connector-curvature="0" />
        <path
           style="fill:#015656;fill-opacity:1"
           id="path14"
           d="m 31.1,53.8 c -2.9,4.2 -3.3,5.5 -3.6,10.8 -3.6,-0.1 -8.6,-3.7 -9.2,-9.5 -0.6,-6.3 3.9,-11 8.3,-11.9 0,4.2 1.6,7.7 4.5,10.6 z"
           inkscape:connector-curvature="0" />
        <path
           style="fill:#015656;fill-opacity:1"
           id="path16"
           d="m 70.4,33.7 c 4.8,-0.6 9.9,3.2 11.1,8.3 1.3,5.4 -1.8,11.2 -6.8,12.8 -0.5,-1.7 -0.8,-3.6 -1.5,-5.2 -0.8,-1.7 -2.1,-3.1 -3.1,-4.7 -0.2,-0.3 -0.4,-0.7 -0.3,-1 1.4,-3.3 1.7,-6.7 0.5,-10.1 0.1,0.1 0.1,0 0.1,-0.1 z"
           inkscape:connector-curvature="0" />
        <path
           style="fill:#015656;fill-opacity:1"
           id="path18"
           d="m 68,74.5 c 0.8,-2.2 1.1,-4.4 0.9,-6.6 0,-0.3 0.2,-0.7 0.4,-0.9 2.6,-2.3 4.3,-5.2 5,-8.6 0.1,-0.3 0.4,-0.7 0.7,-0.8 0.7,-0.4 1.5,-0.6 2.2,-1.1 0.7,-0.4 1.1,-0.3 1.5,0.3 3.4,4.3 3,11 -1.1,14.8 C 75,74 71.8,75 68,74.5 Z"
           inkscape:connector-curvature="0" />
        <path
           style="fill:#015656;fill-opacity:1"
           id="path20"
           d="m 20.8,43 c -2.4,-3.1 -1.5,-9.4 1.9,-12.8 3.8,-3.8 10,-4.5 14.2,-1.4 -0.5,0.2 -1,0.4 -1.4,0.7 -4.5,2.1 -7.3,5.6 -8.5,10.4 -0.1,0.3 -0.3,0.7 -0.5,0.8 -1.9,0.8 -3.8,1.5 -5.7,2.3 z"
           inkscape:connector-curvature="0" />
        <path
           style="fill:#015656;fill-opacity:1"
           id="path22"
           d="m 47.7,77.3 c 3.6,-1.5 6.3,-3.9 8.1,-7.3 3.7,0.9 7.2,0.5 10.7,-1.2 0.7,4 -2.4,9 -6.6,10.8 -4.3,1.9 -10,0.8 -12.2,-2.3 z"
           inkscape:connector-curvature="0" />
        <path
           style="fill:#015656;fill-opacity:1"
           id="path24"
           d="m 56.6,25 c -0.2,0 -0.4,0.1 -0.6,0.1 -3.1,0.4 -5.8,1.7 -8,3.9 -0.2,0.2 -0.7,0.3 -0.9,0.2 -2.1,-0.8 -4.3,-1.2 -6.6,-1 -0.2,0 -0.5,0 -0.7,-0.2 -0.9,-0.7 -1.8,-1.4 -2.7,-2.1 1.1,-3.4 5.4,-6.3 9.7,-6.5 4.1,-0.1 8.5,2.4 9.8,5.6 z"
           inkscape:connector-curvature="0" />
        <path
           style="fill:#015656;fill-opacity:1"
           id="path26"
           d="m 57.6,21.8 c 3.7,-1.6 7.4,-1.5 10.8,0.7 3.2,2 4.8,5.1 5,8.8 -1.4,0 -2.6,0 -3.9,-0.1 -0.2,0 -0.5,-0.2 -0.7,-0.4 -2.2,-3 -5.1,-4.9 -8.7,-5.6 -0.3,0 -0.6,-0.2 -0.7,-0.4 -0.6,-0.9 -1.1,-1.9 -1.8,-3 z"
           inkscape:connector-curvature="0" />
      </g>
    </g>
  </g>
</svg>
